<svg xmlns="http://www.w3.org/2000/svg" width="1469" height="1815" fill="none" viewBox="0 0 1469 1815">
  <path stroke="#000" d="M748.5.5s10.455 63.563 0 102c-6.057 22.268-11.436 34.643-24 54-67.188 103.512-193 17-316 0-103.675-14.329-173.978-45.975-268 0-59.73 29.207-103.434 51.958-126 114.5-16.37 45.367-20.614 79.897 0 123.5 18.796 39.758 47.156 74.489 84 98.5 66.956 43.635 116.935 51.655 195.5 37 96.5-18 145.295-34.83 237.5-60.5 97.115-27.037 149.396-49.785 247-75 112.753-29.128 175.555-62.06 292-60.5 109.38 1.466 185.84-4.932 273.5 60.5 64.83 48.389 105.03 89.095 120.5 168.5 15.48 79.444-18.85 126.187-48.5 201.5-22.33 56.723-33.05 91.604-72 138.5-55.33 66.626-74.2 85.18-153.5 120-59.61 26.17-127.57 43.79-192.5 48.5-112.21 8.13-204.66-63.66-314.5-88C526.949 948.812 472.731 922.145 315 951c-87.647 16.034-156.631 6.009-216.5 72-41.056 45.25-49.321 84.34-60 144.5-8.634 48.64-6.266 77.5 0 126.5 6.801 53.19 10.225 99.7 36 132.5s40.225 51.2 66 84c0 0 64.334 61.72 135.5 90.5 57.191 23.13 127.828 49.53 189.5 48 57.226-1.42 83.792-31.15 138.5-48 124.28-38.27 196.813-50.62 325-72.5 110.78-18.9 173.74-47.77 285.5-36 61.23 6.45 111.17-8.71 153.5 36 42.64 45.04 46.89 97.76 27 156.5-13.95 41.22-31.28 65.8-69 87.5-73 42-111.5 21-186.5 21-111.98 0-191.5-35-274-84.5-29.134-17.48-56.486-14.94-87 0-41.568 20.35-54 105.5-54 105.5"/>
</svg>
